<svg xmlns="http://www.w3.org/2000/svg" xmlns:xlink="http://www.w3.org/1999/xlink" width="704.204" height="743.595" viewBox="0 0 704.204 743.595">
  <defs>
    <linearGradient id="linear-gradient" y1="0.5" x2="1" y2="0.5" gradientUnits="objectBoundingBox">
      <stop offset="0" stop-color="gray" stop-opacity="0.251"/>
      <stop offset="0.535" stop-color="gray" stop-opacity="0.122"/>
      <stop offset="1" stop-color="gray" stop-opacity="0.102"/>
    </linearGradient>
  </defs>
  <g id="Group_9" data-name="Group 9" transform="translate(1528.605 2058.811)">
    <g id="Group_7" data-name="Group 7" transform="translate(-2195 -962)">
      <path id="Path_96" data-name="Path 96" d="M778.38,237.352h-3.7V136.04A58.638,58.638,0,0,0,716.042,77.4H501.4a58.637,58.637,0,0,0-58.637,58.637v555.81A58.637,58.637,0,0,0,501.4,750.484H716.045a58.637,58.637,0,0,0,58.637-58.637V309.468h3.7Z" transform="translate(487.236 -1174.211)" fill="#3f3d56"/>
      <path id="Path_97" data-name="Path 97" d="M763.516,137.688v554.99a43.792,43.792,0,0,1-43.79,43.791H504.051a43.792,43.792,0,0,1-43.791-43.79V137.688A43.791,43.791,0,0,1,504.046,93.9h26.169a20.815,20.815,0,0,0,19.265,28.661H672.447A20.815,20.815,0,0,0,691.711,93.9h28.014a43.792,43.792,0,0,1,43.791,43.79Z" transform="translate(485.921 -1175.45)" fill="#fff"/>
      <path id="Path_158" data-name="Path 158" d="M986.852,639.131l22-30.948L986.8,642.521l-.048,3.546q-2.32-.043-4.592-.2c0-.8,2.288-45.086,2.218-45.888.107-.029.209-4.188.253-4.37l-22.32-34.284,22.376,31.061.059.912,1.69-34.4-19.126-35.44,19.341,29.394c.012-.468,1.641-71.126,1.655-71.562,0,.232-.134,56.241-.134,56.477l18.855-22.356-18.922,27.2-.4,30.8L1005.3,543.8c-22.01,43.224-17.083,28.071-17.867,51.271l25.527-41.225-25.609,47.2Z" transform="translate(-1.957 -1085.235)" fill="#d0cde1"/>
      <path id="Path_188" data-name="Path 188" d="M979.2,589.923l15.144-21.3L979.17,592.256l-.033,2.44q-1.6-.029-3.16-.136c0-.554,1.575-31.03,1.527-31.582.074-.02.144-2.882.174-3.007l-15.361-23.6,15.4,21.377.04.628L978.92,534.7l-13.164-24.391,13.311,20.23c.008-.322,1.13-48.952,1.139-49.252,0,.159-.093,38.708-.092,38.87l12.977-15.387-13.023,18.72-.278,21.2,12.1-20.382c-15.148,29.749-11.757,19.319-12.3,35.287l17.569-28.373-17.614,32.49Z" transform="translate(235.417 -1033.865)" fill="#d0cde1"/>
      <circle id="Ellipse_14" data-name="Ellipse 14" cx="2.178" cy="2.178" r="2.178" transform="translate(974.106 -1030.561)" fill="#3f3d56"/>
      <circle id="Ellipse_15" data-name="Ellipse 15" cx="2.178" cy="2.178" r="2.178" transform="translate(982.092 -1030.561)" fill="#3f3d56"/>
      <circle id="Ellipse_16" data-name="Ellipse 16" cx="2.178" cy="2.178" r="2.178" transform="translate(990.079 -1030.561)" fill="#3f3d56"/>
      <rect id="Rectangle_24" data-name="Rectangle 24" width="22.508" height="2.904" transform="translate(1197.736 -1034.191)" fill="#3f3d56"/>
      <rect id="Rectangle_25" data-name="Rectangle 25" width="22.508" height="2.904" transform="translate(1197.736 -1029.835)" fill="#3f3d56"/>
      <rect id="Rectangle_26" data-name="Rectangle 26" width="22.508" height="2.904" transform="translate(1197.736 -1025.478)" fill="#3f3d56"/>
    </g>
    <g id="Group_6" data-name="Group 6" transform="translate(-778 -790.413)">
      <path id="Path_2" data-name="Path 2" d="M557.621,76.854,332,215.7s0,286.368,225.623,442.569C783.245,502.068,783.245,215.7,783.245,215.7Z" transform="translate(-1008.736 -1210.108)" fill="#3f3d56"/>
      <path id="Path_3" data-name="Path 3" d="M602.557,76.854,598.7,79.228V655.56c1.281.906,2.561,1.811,3.857,2.708C828.18,502.068,828.18,215.7,828.18,215.7Z" transform="translate(-1052.324 -1210.108)" fill="#6c63ff" opacity="0.04"/>
      <g id="Group_1" data-name="Group 1" transform="translate(-523.459 -888.973)" opacity="0.7">
        <path id="Path_4" data-name="Path 4" d="M362.644,339.825l42.534,38.989L457.9,302.75l21.267,17.723-73.994,93.787-60.256-67.345Z" transform="translate(-344.921 -302.75)" fill="url(#linear-gradient)"/>
      </g>
      <path id="Path_5" data-name="Path 5" d="M375.3,342l34.5,31.627,48.879-71.881,17.252,14.376L409.8,402.384l-48.879-54.629Z" transform="translate(-870.995 -1191.56)" fill="#3ad29f"/>
      <path id="Path_6" data-name="Path 6" d="M333.582,112.952a3.074,3.074,0,0,1-1.713-3.715,1.477,1.477,0,0,0,.067-.341h0a1.541,1.541,0,0,0-2.769-1.022h0a1.478,1.478,0,0,0-.171.3,3.074,3.074,0,0,1-3.715,1.713,1.478,1.478,0,0,0-.341-.067h0a1.541,1.541,0,0,0-1.022,2.769h0a1.477,1.477,0,0,0,.3.171,3.074,3.074,0,0,1,1.713,3.715,1.477,1.477,0,0,0-.067.341h0a1.541,1.541,0,0,0,2.769,1.022h0a1.479,1.479,0,0,0,.171-.3,3.074,3.074,0,0,1,3.715-1.713,1.476,1.476,0,0,0,.341.067h0a1.541,1.541,0,0,0,1.022-2.769h0a1.478,1.478,0,0,0-.3-.171Z" transform="translate(-1007.315 -1215.078)" fill="#4d8af0" opacity="0.5"/>
      <circle id="Ellipse_4" data-name="Ellipse 4" cx="5.019" cy="5.019" r="5.019" transform="translate(-750.605 -909.678)" fill="#47e6b1" opacity="0.5"/>
    </g>
    <g id="Group_8" data-name="Group 8" transform="translate(-694 -939)">
      <g id="Group_3" data-name="Group 3" transform="translate(-824.004 -1144)" opacity="0.5">
        <rect id="Rectangle_3" data-name="Rectangle 3" width="3" height="17" transform="translate(594.399 666)" fill="#47e6b1"/>
        <rect id="Rectangle_4" data-name="Rectangle 4" width="3" height="17" transform="translate(604.399 673) rotate(90)" fill="#47e6b1"/>
      </g>
      <rect id="Rectangle_9" data-name="Rectangle 9" width="22.242" height="28.597" transform="translate(-234.559 -903.867) rotate(-2.221)" fill="#6c63ff"/>
      <path id="Path_12" data-name="Path 12" d="M681.71,405.459s-30.779-14.706-30.286-2.005,31.025,21.056,31.025,21.056Z" transform="translate(-994.305 -1210.108)" fill="#ffb9b9"/>
      <path id="Path_13" data-name="Path 13" d="M698.6,512.919s-14.521,35.542-19.886,61.188-13.536,60.942-3.026,85.974,40.392,98.6,40.7,106.537-2.559,16,3.791,15.752,40.907-11.126,42.31-15.95-11.79-17.032-11.79-17.032L718.117,647.306l33.99-66.505,24.516,99.215,4.8,123.828s23.567-7.274,26.988-1.047c0,0,10.559-14.719,11.9-21.131s-4.987-128.591-4.987-128.591S836.959,513.913,819.5,514.59,733.633,473.4,698.6,512.919Z" transform="translate(-994.305 -1210.108)" fill="#6c63ff"/>
      <path id="Path_14" data-name="Path 14" d="M719.929,776.02s-16.109,35.6-17.635,37.252-12.023,17.956-4.085,17.648,26.68-8.984,40.476-22.239,31.984-36.219,30.335-37.745-12.947-5.858-12.947-5.858Z" transform="translate(-994.305 -1210.108)" fill="#575a89"/>
      <path id="Path_15" data-name="Path 15" d="M784.292,795.784s-.972,15.937-3.9,22.41-2.559,16,5.378,15.691,28.453-4.283,28.453-4.283,1.218-9.587-.431-11.113-8.676-18.743-5.686-23.628S784.292,795.784,784.292,795.784Z" transform="translate(-994.305 -1210.108)" fill="#575a89"/>
      <path id="Path_16" data-name="Path 16" d="M796.036,278.6s16.922,26.373,23.518,32.477-11.962,19.543-11.962,19.543l-33.215,4.468s.418-30.225-1.293-33.338S796.036,278.6,796.036,278.6Z" transform="translate(-994.305 -1210.108)" fill="#ffb9b9"/>
      <path id="Path_17" data-name="Path 17" d="M767.165,313.109s6.843,12.454,13.193,12.208,39.2-14.239,40.6-19.064,10.88,34.557,10.88,34.557L751.465,482.25,731.86,468.7l9.5-83.045,7.8-44.821Z" transform="translate(-994.305 -1210.108)" fill="#6c63ff"/>
      <path id="Path_18" data-name="Path 18" d="M823.921,439.692c-3.206,6.707-5.208,13.7-4.931,20.86.012.318.025.635.053.952.761,14.693,6.173,31.686,8.115,44.044,1.409,8.865,1.008,15.335-4.18,16.856-12.577,3.668,1.834,6.289-46.826,22.485s-57.152,2.216-57.275-.959,6.891-27.3,5.242-28.822-23.074,19.974-29.548,17.045-.739-19.05-.739-19.05,14.583-33.954,14.275-41.892S730.2,425.837,730.2,425.837l15.234-99.166s5.858-12.947,13.734-14.842,14.411,2.621,14.411,2.621L760.4,343.58,746.491,395l2.326,18.989s16.17-34.016,26.791-47.147,33.264-44.218,33.264-44.218,5.286-17.837,1.3-23.168c-3.991-5.346,16.647-6.147,25.446,15.771,4.664,11.616,12.236,28.939,16.979,45.068,4.227,14.289,6.223,27.646,2.036,35.281C848.229,407.237,832.129,422.568,823.921,439.692Z" transform="translate(-994.305 -1210.108)" fill="#575a89"/>
      <path id="Path_19" data-name="Path 19" d="M854.629,395.573c-6.4,11.664-22.5,27-30.708,44.119-2.144-7.723-4.759-15.715-4.759-15.715s-10.031-53.669,19.64-67.539a19.858,19.858,0,0,1,13.791,3.854C856.82,374.581,858.817,387.938,854.629,395.573Z" transform="translate(-994.305 -1210.108)" opacity="0.1"/>
      <path id="Path_20" data-name="Path 20" d="M736.843,392.191l-25.154,7.335-34.926,1.354-3.593,30.348,57.4,4.134S744.9,395.058,736.843,392.191Z" transform="translate(-994.305 -1210.108)" fill="#575a89"/>
      <path id="Path_21" data-name="Path 21" d="M777.861,494.231s-33.652,5.583-25.971,15.71,37.492-.52,37.492-.52Z" transform="translate(-994.305 -1210.108)" fill="#ffb9b9"/>
      <path id="Path_22" data-name="Path 22" d="M819.044,461.5c.761,14.693,6.173,31.686,8.115,44.044-10.72,10.146-20.914,19.1-24.756,19.244-7.938.308-20.7-.787-25.4.985s-7.458-28.329-7.458-28.329,2.8-9.648,15.321-14.9C793.313,478.99,809.506,469.347,819.044,461.5Z" transform="translate(-994.305 -1210.108)" opacity="0.1"/>
      <path id="Path_23" data-name="Path 23" d="M838.433,346.913s26.865-4.222,25.414,40.353,2.832,73.027-7.973,81.4-45.9,46.3-53.84,46.606-20.7-.787-25.4.985-7.458-28.329-7.458-28.329,2.806-9.648,15.321-14.9,42-23.888,41.756-30.238-7.458-28.329-7.458-28.329S808.762,360.783,838.433,346.913Z" transform="translate(-994.305 -1210.108)" fill="#575a89"/>
      <circle id="Ellipse_6" data-name="Ellipse 6" cx="34.952" cy="34.952" r="34.952" transform="translate(-256.912 -962.361)" fill="#ffb9b9"/>
      <path id="Path_24" data-name="Path 24" d="M748.811,232.6a6.749,6.749,0,0,1-2.939,1.475,2.1,2.1,0,0,1-2.43-1.683c-.8,1.658-1.7,3.426-3.335,4.277s-4.157.137-4.393-1.689a7.706,7.706,0,0,1-1.774,3.744c-1.013.966-2.85,1.21-3.734.125.715,3.907.274,7.926.5,11.892s1.282,8.171,4.278,10.778c4.37,3.8,10.941,2.865,16.689,2.144a5.066,5.066,0,0,1,2.615.143c2.152.917,2.055,3.913,2.084,6.252a17.373,17.373,0,0,0,15.212,16.5,8.708,8.708,0,0,0,6.472-1.58c1.632-1.383,2.466-3.638,4.336-4.677,3.042-1.69,6.732.775,8.956,3.452s4.416,5.969,7.862,6.459c4.557.648,8.028-4,9.73-8.272a48.223,48.223,0,0,0-.958-37.47C798.467,223.729,765.964,220.448,748.811,232.6Z" transform="translate(-994.305 -1210.108)" fill="#2f2e41"/>
    </g>
  </g>
</svg>
